<svg width="352" height="353" viewBox="0 0 352 353" fill="none" xmlns="http://www.w3.org/2000/svg">
  <rect y="0.38" width="352" height="352" rx="58.13" fill="#FFF9F6"/>
  <path d="M151.8 45.5c11.2-1.2 21.1 5.35 24.2 16.02.54 1.88.82 3.89.88 5.86.13 4.2.05 8.41.05 12.62 0 .39-.33.69-.72.7-3.07.11-6.08-.02-9.02-1-9.21-3.03-15.33-11.47-15.42-21.35-.04-4-.01-8.01 0-12.01" fill="#05A85A"/>
  <path d="M205.3 64.23c.99 8.75-5.26 16.21-13.69 16.46-4.77.14-9.15-3.93-7.14-8.26.95-2.06 2.42-3.88 4.47-5.44 2.3-1.76 4.93-2.69 7.82-2.74 2.83-.04 5.66 0 8.54 0" fill="#05A85A"/>
  <path fill-rule="evenodd" clip-rule="evenodd" d="M276 155.69c0 49.73-43.64 96.87-97.47 96.87-19.52 0-37.71-6.2-52.95-16.48v49.48c0 12.29-9.96 22.26-22.26 22.26s-22.26-9.97-22.26-22.26V157.39h.02c-.01-.57-.02-1.13-.02-1.7 0-43.02 32.67-72.02 76.33-68.64 14.01 1.09 28.26 1.09 42.27 0 43.67-3.39 76.34 25.62 76.34 68.64zM125.61 163.8v-.39c.1-24.1 19.36-39.92 44.44-36.17 5.13.77 10.37.77 15.49 0 25.15-3.77 44.44 12.15 44.44 36.35 0 26.64-23.36 51.89-52.19 51.89-28.75 0-52.07-25.13-52.18-51.68z" fill="url(#pg)"/>
  <defs>
    <radialGradient id="pg" cx="0" cy="0" r="1" gradientUnits="userSpaceOnUse" gradientTransform="translate(276 88) rotate(159) scale(220 130)">
      <stop stop-color="#FFA24C"/>
      <stop offset=".5" stop-color="#FF7A50"/>
      <stop offset="1" stop-color="#FF4D42"/>
    </radialGradient>
  </defs>
</svg>
