<svg xmlns="http://www.w3.org/2000/svg" width="900" height="250" version="1.0" viewBox="0 0 675 187.5"><defs><clipPath id="e"><path d="M16.027 20.004h360.536v146.61H16.026Zm0 0"/></clipPath><clipPath id="f"><path d="M41.785 20.031h309.02a25.535 25.535 0 0 1 5.023.492q1.241.246 2.453.614a25 25 0 0 1 2.38.847c.78.325 1.538.684 2.284 1.078q1.114.597 2.168 1.297c.7.465 1.38.97 2.028 1.5a27 27 0 0 1 1.875 1.692 26.5 26.5 0 0 1 3.203 3.894 25.7 25.7 0 0 1 4.34 14.27v94.984a25.8 25.8 0 0 1-.497 5.012q-.247 1.237-.613 2.445a27 27 0 0 1-.851 2.375 25.8 25.8 0 0 1-5.582 8.332 27 27 0 0 1-1.875 1.692 25 25 0 0 1-2.028 1.5q-1.054.703-2.168 1.297a25 25 0 0 1-2.285 1.078 25 25 0 0 1-2.379.847q-1.212.368-2.453.614a25.5 25.5 0 0 1-5.023.492H41.785q-1.267 0-2.527-.121a26 26 0 0 1-2.496-.371 25 25 0 0 1-2.453-.614 25 25 0 0 1-2.38-.847q-1.17-.48-2.284-1.078a25 25 0 0 1-2.168-1.297c-.7-.465-1.38-.965-2.032-1.5a27 27 0 0 1-1.87-1.692 26 26 0 0 1-1.696-1.867 26 26 0 0 1-1.508-2.027q-.704-1.048-1.297-2.16-.596-1.113-1.082-2.278a25.7 25.7 0 0 1-1.96-9.832V45.715a26 26 0 0 1 .495-5.012q.245-1.237.614-2.445a25.89 25.89 0 0 1 3.23-6.812q.705-1.051 1.508-2.024a26 26 0 0 1 1.695-1.871 27 27 0 0 1 1.871-1.692 26 26 0 0 1 4.2-2.797 27 27 0 0 1 2.285-1.078 25 25 0 0 1 2.379-.847q1.212-.368 2.453-.614c.824-.164 1.66-.289 2.496-.37a26 26 0 0 1 2.527-.122m0 0"/></clipPath><clipPath id="h"><path d="M63 69h54v60H63Zm0 0"/></clipPath><clipPath id="i"><path d="M116.238 87.672c0 13.305-11.707 25.914-26.144 25.914-5.239 0-10.117-1.656-14.207-4.406v13.238c0 3.285-2.672 5.953-5.969 5.953s-5.973-2.668-5.973-5.953v-34.29h.008q-.007-.227-.008-.456c0-11.512 8.766-19.27 20.477-18.363 3.758.293 7.582.293 11.34 0 11.715-.907 20.476 6.851 20.476 18.363M75.887 89.84v-.102c.027-6.449 5.195-10.68 11.922-9.675a14.3 14.3 0 0 0 4.156 0c6.746-1.008 11.922 3.25 11.922 9.726 0 7.125-6.27 13.883-14 13.883-7.715 0-13.969-6.723-14-13.832m0 0" clip-rule="evenodd"/></clipPath><clipPath id="k"><path d="M87 0h587.102v187H87Zm0 0"/></clipPath><clipPath id="m"><path d="M1.547 0h585.555v187H1.547Zm0 0"/></clipPath><clipPath id="o"><path d="M.547 0h585.555v187H.547Zm0 0"/></clipPath><clipPath id="c"><path d="M.547 0h585.555v187H.547Zm0 0"/></clipPath><clipPath id="d"><path d="M0 0h587v187H0z"/></clipPath><clipPath id="b"><path d="M0 0h587v187H0z"/></clipPath><clipPath id="r"><path d="M.547 0h585.555v187H.547Zm0 0"/></clipPath><clipPath id="q"><path d="M0 0h587v187H0z"/></clipPath><clipPath id="n"><path d="M0 0h587v187H0z"/></clipPath><clipPath id="l"><path d="M0 0h588v187H0z"/></clipPath><radialGradient id="g" cx="0" cy="0" r="349.122" fx="0" fy="0" gradientTransform="matrix(-1.03266 .41921 -.3346 -.81984 376.557 20.03)" gradientUnits="userSpaceOnUse"><stop offset="0" stop-color="#ffa24c"/><stop offset=".008" stop-color="#ffa14c"/><stop offset=".02" stop-color="#ffa04c"/><stop offset=".031" stop-color="#ff9f4c"/><stop offset=".043" stop-color="#ff9e4c"/><stop offset=".055" stop-color="#ff9d4c"/><stop offset=".066" stop-color="#ff9c4d"/><stop offset=".078" stop-color="#ff9b4d"/><stop offset=".09" stop-color="#ff9a4d"/><stop offset=".102" stop-color="#ff994d"/><stop offset=".113" stop-color="#ff994d"/><stop offset=".125" stop-color="#ff984d"/><stop offset=".137" stop-color="#ff974d"/><stop offset=".148" stop-color="#ff964d"/><stop offset=".16" stop-color="#ff954d"/><stop offset=".172" stop-color="#ff944d"/><stop offset=".184" stop-color="#ff934e"/><stop offset=".195" stop-color="#ff924e"/><stop offset=".207" stop-color="#ff914e"/><stop offset=".219" stop-color="#ff904e"/><stop offset=".23" stop-color="#ff8f4e"/><stop offset=".242" stop-color="#ff8e4e"/><stop offset=".254" stop-color="#ff8d4e"/><stop offset=".262" stop-color="#ff8d4e"/><stop offset=".27" stop-color="#ff8c4e"/><stop offset=".277" stop-color="#ff8c4e"/><stop offset=".285" stop-color="#ff8b4e"/><stop offset=".293" stop-color="#ff8a4e"/><stop offset=".301" stop-color="#ff8a4e"/><stop offset=".309" stop-color="#ff894e"/><stop offset=".316" stop-color="#ff884f"/><stop offset=".324" stop-color="#ff884f"/><stop offset=".332" stop-color="#ff874f"/><stop offset=".34" stop-color="#ff874f"/><stop offset=".348" stop-color="#ff864f"/><stop offset=".355" stop-color="#ff854f"/><stop offset=".363" stop-color="#ff854f"/><stop offset=".371" stop-color="#ff844f"/><stop offset=".379" stop-color="#ff834f"/><stop offset=".387" stop-color="#ff834f"/><stop offset=".395" stop-color="#ff824f"/><stop offset=".402" stop-color="#ff824f"/><stop offset=".41" stop-color="#ff814f"/><stop offset=".418" stop-color="#ff804f"/><stop offset=".426" stop-color="#ff804f"/><stop offset=".434" stop-color="#ff7f4f"/><stop offset=".441" stop-color="coral"/><stop offset=".449" stop-color="#ff7e50"/><stop offset=".457" stop-color="#ff7d50"/><stop offset=".465" stop-color="#ff7d50"/><stop offset=".473" stop-color="#ff7c50"/><stop offset=".48" stop-color="#ff7b50"/><stop offset=".488" stop-color="#ff7b50"/><stop offset=".496" stop-color="#ff7a50"/><stop offset=".504" stop-color="#ff7a50"/><stop offset=".508" stop-color="#ff7950"/><stop offset=".512" stop-color="#ff7950"/><stop offset=".516" stop-color="#ff7950"/><stop offset=".52" stop-color="#ff784f"/><stop offset=".523" stop-color="#ff784f"/><stop offset=".527" stop-color="#ff784f"/><stop offset=".531" stop-color="#ff774f"/><stop offset=".535" stop-color="#ff774f"/><stop offset=".539" stop-color="#ff764f"/><stop offset=".543" stop-color="#ff764f"/><stop offset=".547" stop-color="#ff764f"/><stop offset=".551" stop-color="#ff754f"/><stop offset=".555" stop-color="#ff754e"/><stop offset=".559" stop-color="#ff754e"/><stop offset=".563" stop-color="#ff744e"/><stop offset=".566" stop-color="#ff744e"/><stop offset=".57" stop-color="#ff744e"/><stop offset=".574" stop-color="#ff734e"/><stop offset=".578" stop-color="#ff734e"/><stop offset=".582" stop-color="#ff734e"/><stop offset=".586" stop-color="#ff724e"/><stop offset=".59" stop-color="#ff724d"/><stop offset=".594" stop-color="#ff724d"/><stop offset=".598" stop-color="#ff714d"/><stop offset=".602" stop-color="#ff714d"/><stop offset=".605" stop-color="#ff704d"/><stop offset=".609" stop-color="#ff704d"/><stop offset=".613" stop-color="#ff704d"/><stop offset=".617" stop-color="#ff6f4d"/><stop offset=".621" stop-color="#ff6f4d"/><stop offset=".625" stop-color="#ff6f4c"/><stop offset=".629" stop-color="#ff6e4c"/><stop offset=".637" stop-color="#ff6d4c"/><stop offset=".645" stop-color="#ff6d4c"/><stop offset=".652" stop-color="#ff6c4c"/><stop offset=".66" stop-color="#ff6b4b"/><stop offset=".668" stop-color="#ff6b4b"/><stop offset=".676" stop-color="#ff6a4b"/><stop offset=".684" stop-color="#ff694b"/><stop offset=".691" stop-color="#ff694b"/><stop offset=".699" stop-color="#ff684a"/><stop offset=".707" stop-color="#ff674a"/><stop offset=".715" stop-color="#ff664a"/><stop offset=".723" stop-color="#ff664a"/><stop offset=".73" stop-color="#ff6549"/><stop offset=".738" stop-color="#ff6449"/><stop offset=".746" stop-color="#ff6449"/><stop offset=".754" stop-color="#ff6349"/><stop offset=".758" stop-color="#ff6349"/><stop offset=".762" stop-color="#ff6249"/><stop offset=".766" stop-color="#ff6249"/><stop offset=".77" stop-color="#ff6248"/><stop offset=".773" stop-color="#ff6148"/><stop offset=".777" stop-color="#ff6148"/><stop offset=".781" stop-color="#ff6148"/><stop offset=".785" stop-color="#ff6048"/><stop offset=".789" stop-color="#ff6048"/><stop offset=".793" stop-color="#ff6048"/><stop offset=".797" stop-color="#ff5f48"/><stop offset=".801" stop-color="#ff5f48"/><stop offset=".805" stop-color="#ff5e47"/><stop offset=".809" stop-color="#ff5e47"/><stop offset=".813" stop-color="#ff5e47"/><stop offset=".816" stop-color="#ff5d47"/><stop offset=".824" stop-color="#ff5d47"/><stop offset=".832" stop-color="#ff5c47"/><stop offset=".84" stop-color="#ff5b46"/><stop offset=".848" stop-color="#ff5a46"/><stop offset=".855" stop-color="#ff5a46"/><stop offset=".863" stop-color="#ff5946"/><stop offset=".871" stop-color="#ff5846"/><stop offset=".879" stop-color="#ff5845"/><stop offset=".883" stop-color="#ff5745"/><stop offset=".887" stop-color="#ff5745"/><stop offset=".891" stop-color="#ff5745"/><stop offset=".895" stop-color="#ff5645"/><stop offset=".898" stop-color="#ff5645"/><stop offset=".902" stop-color="#ff5645"/><stop offset=".906" stop-color="#ff5545"/><stop offset=".91" stop-color="#f54"/><stop offset=".918" stop-color="#ff5444"/><stop offset=".926" stop-color="#ff5344"/><stop offset=".934" stop-color="#ff5344"/><stop offset=".941" stop-color="#ff5244"/><stop offset=".945" stop-color="#ff5243"/><stop offset=".949" stop-color="#ff5143"/><stop offset=".953" stop-color="#ff5143"/><stop offset=".957" stop-color="#ff5143"/><stop offset=".965" stop-color="#ff5043"/><stop offset=".973" stop-color="#ff4f43"/><stop offset=".977" stop-color="#ff4f43"/><stop offset=".98" stop-color="#ff4e42"/><stop offset=".988" stop-color="#ff4e42"/><stop offset=".992" stop-color="#ff4d42"/><stop offset="1" stop-color="#ff4d42"/></radialGradient><radialGradient id="j" cx="0" cy="0" r="84.12" fx="0" fy="0" gradientTransform="matrix(-.62162 .70297 -.79712 -.70114 116.238 69.238)" gradientUnits="userSpaceOnUse"><stop offset="0" stop-color="#ffa24c"/><stop offset=".008" stop-color="#ffa14c"/><stop offset=".02" stop-color="#ffa04c"/><stop offset=".031" stop-color="#ff9f4c"/><stop offset=".043" stop-color="#ff9e4c"/><stop offset=".055" stop-color="#ff9d4c"/><stop offset=".066" stop-color="#ff9c4d"/><stop offset=".078" stop-color="#ff9b4d"/><stop offset=".09" stop-color="#ff9a4d"/><stop offset=".102" stop-color="#ff994d"/><stop offset=".113" stop-color="#ff994d"/><stop offset=".125" stop-color="#ff984d"/><stop offset=".137" stop-color="#ff974d"/><stop offset=".148" stop-color="#ff964d"/><stop offset=".16" stop-color="#ff954d"/><stop offset=".172" stop-color="#ff944d"/><stop offset=".184" stop-color="#ff934e"/><stop offset=".195" stop-color="#ff924e"/><stop offset=".207" stop-color="#ff914e"/><stop offset=".219" stop-color="#ff904e"/><stop offset=".23" stop-color="#ff8f4e"/><stop offset=".242" stop-color="#ff8e4e"/><stop offset=".254" stop-color="#ff8d4e"/><stop offset=".262" stop-color="#ff8d4e"/><stop offset=".27" stop-color="#ff8c4e"/><stop offset=".277" stop-color="#ff8c4e"/><stop offset=".285" stop-color="#ff8b4e"/><stop offset=".293" stop-color="#ff8a4e"/><stop offset=".301" stop-color="#ff8a4e"/><stop offset=".309" stop-color="#ff894e"/><stop offset=".316" stop-color="#ff884f"/><stop offset=".324" stop-color="#ff884f"/><stop offset=".332" stop-color="#ff874f"/><stop offset=".34" stop-color="#ff874f"/><stop offset=".348" stop-color="#ff864f"/><stop offset=".355" stop-color="#ff854f"/><stop offset=".363" stop-color="#ff854f"/><stop offset=".371" stop-color="#ff844f"/><stop offset=".379" stop-color="#ff834f"/><stop offset=".387" stop-color="#ff834f"/><stop offset=".395" stop-color="#ff824f"/><stop offset=".402" stop-color="#ff824f"/><stop offset=".41" stop-color="#ff814f"/><stop offset=".418" stop-color="#ff804f"/><stop offset=".426" stop-color="#ff804f"/><stop offset=".434" stop-color="#ff7f4f"/><stop offset=".441" stop-color="coral"/><stop offset=".449" stop-color="#ff7e50"/><stop offset=".457" stop-color="#ff7d50"/><stop offset=".465" stop-color="#ff7d50"/><stop offset=".473" stop-color="#ff7c50"/><stop offset=".48" stop-color="#ff7b50"/><stop offset=".488" stop-color="#ff7b50"/><stop offset=".496" stop-color="#ff7a50"/><stop offset=".504" stop-color="#ff7a50"/><stop offset=".508" stop-color="#ff7950"/><stop offset=".512" stop-color="#ff7950"/><stop offset=".516" stop-color="#ff7950"/><stop offset=".52" stop-color="#ff784f"/><stop offset=".523" stop-color="#ff784f"/><stop offset=".527" stop-color="#ff784f"/><stop offset=".531" stop-color="#ff774f"/><stop offset=".535" stop-color="#ff774f"/><stop offset=".539" stop-color="#ff764f"/><stop offset=".543" stop-color="#ff764f"/><stop offset=".547" stop-color="#ff764f"/><stop offset=".551" stop-color="#ff754f"/><stop offset=".555" stop-color="#ff754e"/><stop offset=".559" stop-color="#ff754e"/><stop offset=".563" stop-color="#ff744e"/><stop offset=".566" stop-color="#ff744e"/><stop offset=".57" stop-color="#ff744e"/><stop offset=".574" stop-color="#ff734e"/><stop offset=".578" stop-color="#ff734e"/><stop offset=".582" stop-color="#ff734e"/><stop offset=".586" stop-color="#ff724e"/><stop offset=".59" stop-color="#ff724d"/><stop offset=".594" stop-color="#ff724d"/><stop offset=".598" stop-color="#ff714d"/><stop offset=".602" stop-color="#ff714d"/><stop offset=".605" stop-color="#ff704d"/><stop offset=".609" stop-color="#ff704d"/><stop offset=".613" stop-color="#ff704d"/><stop offset=".617" stop-color="#ff6f4d"/><stop offset=".621" stop-color="#ff6f4d"/><stop offset=".625" stop-color="#ff6f4c"/><stop offset=".629" stop-color="#ff6e4c"/><stop offset=".637" stop-color="#ff6d4c"/><stop offset=".645" stop-color="#ff6d4c"/><stop offset=".652" stop-color="#ff6c4c"/><stop offset=".66" stop-color="#ff6b4b"/><stop offset=".668" stop-color="#ff6b4b"/><stop offset=".676" stop-color="#ff6a4b"/><stop offset=".684" stop-color="#ff694b"/><stop offset=".691" stop-color="#ff694b"/><stop offset=".699" stop-color="#ff684a"/><stop offset=".707" stop-color="#ff674a"/><stop offset=".715" stop-color="#ff664a"/><stop offset=".723" stop-color="#ff664a"/><stop offset=".73" stop-color="#ff6549"/><stop offset=".738" stop-color="#ff6449"/><stop offset=".746" stop-color="#ff6449"/><stop offset=".754" stop-color="#ff6349"/><stop offset=".758" stop-color="#ff6349"/><stop offset=".762" stop-color="#ff6249"/><stop offset=".766" stop-color="#ff6249"/><stop offset=".77" stop-color="#ff6248"/><stop offset=".773" stop-color="#ff6148"/><stop offset=".777" stop-color="#ff6148"/><stop offset=".781" stop-color="#ff6148"/><stop offset=".785" stop-color="#ff6048"/><stop offset=".789" stop-color="#ff6048"/><stop offset=".793" stop-color="#ff6048"/><stop offset=".797" stop-color="#ff5f48"/><stop offset=".801" stop-color="#ff5f48"/><stop offset=".805" stop-color="#ff5e47"/><stop offset=".809" stop-color="#ff5e47"/><stop offset=".813" stop-color="#ff5e47"/><stop offset=".816" stop-color="#ff5d47"/><stop offset=".824" stop-color="#ff5d47"/><stop offset=".832" stop-color="#ff5c47"/><stop offset=".84" stop-color="#ff5b46"/><stop offset=".848" stop-color="#ff5a46"/><stop offset=".855" stop-color="#ff5a46"/><stop offset=".863" stop-color="#ff5946"/><stop offset=".871" stop-color="#ff5846"/><stop offset=".879" stop-color="#ff5845"/><stop offset=".883" stop-color="#ff5745"/><stop offset=".887" stop-color="#ff5745"/><stop offset=".891" stop-color="#ff5745"/><stop offset=".895" stop-color="#ff5645"/><stop offset=".898" stop-color="#ff5645"/><stop offset=".902" stop-color="#ff5645"/><stop offset=".906" stop-color="#ff5545"/><stop offset=".91" stop-color="#f54"/><stop offset=".918" stop-color="#ff5444"/><stop offset=".926" stop-color="#ff5344"/><stop offset=".934" stop-color="#ff5344"/><stop offset=".941" stop-color="#ff5244"/><stop offset=".945" stop-color="#ff5243"/><stop offset=".949" stop-color="#ff5143"/><stop offset=".953" stop-color="#ff5143"/><stop offset=".957" stop-color="#ff5143"/><stop offset=".965" stop-color="#ff5043"/><stop offset=".973" stop-color="#ff4f43"/><stop offset=".977" stop-color="#ff4f43"/><stop offset=".98" stop-color="#ff4e42"/><stop offset=".988" stop-color="#ff4e42"/><stop offset=".992" stop-color="#ff4d42"/><stop offset="1" stop-color="#ff4d42"/></radialGradient><linearGradient id="s" x1="-168.205" x2="356.364" y1="-311.488" y2="213.083" gradientTransform="matrix(.73646 0 0 .7361 288.653 65.136)" gradientUnits="userSpaceOnUse"><stop offset="0" stop-color="#ffa04d"/><stop offset=".242" stop-color="#ffa04d"/><stop offset=".25" stop-color="#ffa04d"/><stop offset=".313" stop-color="#ffa04d"/><stop offset=".344" stop-color="#ffa04d"/><stop offset=".359" stop-color="#ffa04d"/><stop offset=".363" stop-color="#ff9f4d"/><stop offset=".367" stop-color="#ff9e4d"/><stop offset=".371" stop-color="#ff9e4d"/><stop offset=".375" stop-color="#ff9d4d"/><stop offset=".379" stop-color="#ff9d4d"/><stop offset=".383" stop-color="#ff9c4d"/><stop offset=".387" stop-color="#ff9b4d"/><stop offset=".391" stop-color="#ff9b4d"/><stop offset=".395" stop-color="#ff9a4d"/><stop offset=".398" stop-color="#ff9a4d"/><stop offset=".402" stop-color="#ff994d"/><stop offset=".406" stop-color="#ff994d"/><stop offset=".41" stop-color="#ff984d"/><stop offset=".414" stop-color="#ff984d"/><stop offset=".418" stop-color="#ff974d"/><stop offset=".422" stop-color="#ff964d"/><stop offset=".426" stop-color="#ff964d"/><stop offset=".43" stop-color="#ff954d"/><stop offset=".434" stop-color="#ff954d"/><stop offset=".438" stop-color="#ff944d"/><stop offset=".441" stop-color="#ff944d"/><stop offset=".445" stop-color="#ff934d"/><stop offset=".449" stop-color="#ff934d"/><stop offset=".453" stop-color="#ff924d"/><stop offset=".457" stop-color="#ff914d"/><stop offset=".461" stop-color="#ff914d"/><stop offset=".465" stop-color="#ff904d"/><stop offset=".469" stop-color="#ff904d"/><stop offset=".473" stop-color="#ff8f4d"/><stop offset=".477" stop-color="#ff8f4d"/><stop offset=".48" stop-color="#ff8e4d"/><stop offset=".484" stop-color="#ff8e4d"/><stop offset=".488" stop-color="#ff8d4d"/><stop offset=".492" stop-color="#ff8c4d"/><stop offset=".496" stop-color="#ff8c4d"/><stop offset=".5" stop-color="#ff8b4d"/><stop offset=".504" stop-color="#ff8b4d"/><stop offset=".508" stop-color="#ff8a4d"/><stop offset=".512" stop-color="#ff8a4d"/><stop offset=".516" stop-color="#ff894d"/><stop offset=".52" stop-color="#ff894d"/><stop offset=".523" stop-color="#ff884d"/><stop offset=".527" stop-color="#ff874d"/><stop offset=".531" stop-color="#ff874d"/><stop offset=".535" stop-color="#ff864d"/><stop offset=".539" stop-color="#ff864d"/><stop offset=".543" stop-color="#ff854d"/><stop offset=".547" stop-color="#ff854d"/><stop offset=".551" stop-color="#ff844d"/><stop offset=".555" stop-color="#ff844d"/><stop offset=".559" stop-color="#ff834d"/><stop offset=".563" stop-color="#ff834d"/><stop offset=".566" stop-color="#ff824d"/><stop offset=".57" stop-color="#ff814d"/><stop offset=".574" stop-color="#ff814d"/><stop offset=".578" stop-color="#ff804d"/><stop offset=".582" stop-color="#ff804d"/><stop offset=".586" stop-color="#ff7f4d"/><stop offset=".59" stop-color="#ff7f4d"/><stop offset=".594" stop-color="#ff7e4d"/><stop offset=".598" stop-color="#ff7e4d"/><stop offset=".602" stop-color="#ff7d4d"/><stop offset=".605" stop-color="#ff7c4d"/><stop offset=".609" stop-color="#ff7c4d"/><stop offset=".613" stop-color="#ff7b4d"/><stop offset=".617" stop-color="#ff7b4d"/><stop offset=".621" stop-color="#ff7a4d"/><stop offset=".625" stop-color="#ff7a4d"/><stop offset=".629" stop-color="#ff794d"/><stop offset=".633" stop-color="#ff794d"/><stop offset=".637" stop-color="#ff784d"/><stop offset=".641" stop-color="#ff774d"/><stop offset=".645" stop-color="#ff774d"/><stop offset=".648" stop-color="#ff764d"/><stop offset=".652" stop-color="#ff764d"/><stop offset=".656" stop-color="#ff754d"/><stop offset=".66" stop-color="#ff754d"/><stop offset=".664" stop-color="#ff744d"/><stop offset=".668" stop-color="#ff744d"/><stop offset=".672" stop-color="#ff734d"/><stop offset=".676" stop-color="#ff724d"/><stop offset=".68" stop-color="#ff724d"/><stop offset=".684" stop-color="#ff714d"/><stop offset=".688" stop-color="#ff714d"/><stop offset=".695" stop-color="#ff704d"/><stop offset=".703" stop-color="#ff704d"/><stop offset=".711" stop-color="#ff6f4c"/><stop offset=".719" stop-color="#ff6e4c"/><stop offset=".727" stop-color="#ff6d4c"/><stop offset=".734" stop-color="#ff6d4c"/><stop offset=".742" stop-color="#ff6c4b"/><stop offset=".75" stop-color="#ff6b4b"/><stop offset=".758" stop-color="#ff6a4b"/><stop offset=".758" stop-color="#ff694b"/><stop offset=".766" stop-color="#ff694a"/><stop offset=".773" stop-color="#ff694a"/><stop offset=".781" stop-color="#ff684a"/><stop offset=".789" stop-color="#ff674a"/><stop offset=".797" stop-color="#ff6649"/><stop offset=".805" stop-color="#ff6649"/><stop offset=".813" stop-color="#ff6549"/><stop offset=".82" stop-color="#ff6449"/><stop offset=".828" stop-color="#ff6348"/><stop offset=".836" stop-color="#ff6248"/><stop offset=".844" stop-color="#ff6248"/><stop offset=".852" stop-color="#ff6148"/><stop offset=".859" stop-color="#ff6047"/><stop offset=".867" stop-color="#ff5f47"/><stop offset=".875" stop-color="#ff5f47"/><stop offset=".883" stop-color="#ff5e47"/><stop offset=".891" stop-color="#ff5d46"/><stop offset=".898" stop-color="#ff5c46"/><stop offset=".906" stop-color="#ff5c46"/><stop offset=".914" stop-color="#ff5b46"/><stop offset=".922" stop-color="#ff5a45"/><stop offset=".93" stop-color="#ff5945"/><stop offset=".938" stop-color="#ff5845"/><stop offset=".945" stop-color="#ff5845"/><stop offset=".953" stop-color="#ff5744"/><stop offset=".961" stop-color="#ff5644"/><stop offset=".969" stop-color="#f54"/><stop offset=".977" stop-color="#f54"/><stop offset=".984" stop-color="#ff5443"/><stop offset=".992" stop-color="#ff5343"/><stop offset="1" stop-color="#ff5243"/></linearGradient><filter id="a" width="100%" height="100%" x="0%" y="0%"><feColorMatrix color-interpolation-filters="sRGB" values="0 0 0 0 1 0 0 0 0 1 0 0 0 0 1 0 0 0 1 0"/></filter><mask id="p"><g filter="url(#a)"><g clip-path="url(#b)"><g clip-path="url(#c)"><g clip-path="url(#d)"><path d="M338.62 74.297q1.595-.717 4.547-1.516a22.8 22.8 0 0 1 5.97-.796q5.325 0 8.858 1.593 3.529 1.582 4.391 4.75a6909 6909 0 0 1 4.469 15.563q2.015 7.047 3.953 13.61 1.952 6.548 3.828 13.75h.578a990 990 0 0 0 3.594-22.891q1.591-10.951 3.031-21.61 1.434-10.669 2.735-21.906 4.746-2.592 9.796-2.594 4.747 0 8.063 2.016 3.311 2.017 3.312 6.781 0 3.159-.656 8.86-.643 5.689-1.797 13.03a453 453 0 0 1-2.656 15.266 436 436 0 0 1-3.25 15.485q-1.72 7.564-3.453 13.687-1.72 6.128-3.313 9.86-1.875 1.595-6.046 2.828-4.174 1.218-8.782 1.218c-3.843 0-7.164-.554-9.953-1.656q-4.173-1.67-5.031-4.547-1.44-4.17-3.25-9.781-1.798-5.626-3.672-12.328c-1.242-4.469-2.484-9.05-3.734-13.75a480 480 0 0 1-3.469 14.047 817 817 0 0 1-3.594 13.328q-1.735 6.188-3.172 10.64-1.877 1.596-5.687 2.829-3.816 1.218-8.422 1.218-5.486 0-10.094-1.734-4.611-1.733-5.906-4.469-1.44-3.31-3.39-10-1.94-6.703-4.032-15.422a474 474 0 0 1-3.953-18.218 977 977 0 0 1-3.469-18.516c-1.054-6-1.867-11.398-2.437-16.203q1.875-1.575 4.968-3.016 3.094-1.453 6.844-1.453 4.746.002 7.781 2.094 3.03 2.097 3.891 7.125c1.531 8.836 2.8 16.422 3.813 22.766 1.007 6.335 1.875 11.761 2.593 16.28a889 889 0 0 0 1.938 11.735q.873 4.97 1.734 9h.719q1.435-5.906 2.734-11.015 1.295-5.11 2.735-10.36a705 705 0 0 0 3.031-11.39q1.591-6.124 3.312-14.188M427.645 115.781l-.875-14.406 35.734-5.625q-.298-4.03-3.468-7.484-3.16-3.452-9.36-3.453-6.487.001-10.812 4.39c-2.875 2.93-4.406 7.078-4.594 12.453l.719 9.938c.863 5.281 3.117 9.055 6.765 11.312 3.657 2.262 7.977 3.391 12.97 3.391 4.03 0 7.82-.57 11.374-1.719q5.326-1.734 8.64-3.61 2.171 1.302 3.532 3.61c.914 1.532 1.375 3.164 1.375 4.89 0 2.876-1.133 5.278-3.39 7.204q-3.376 2.877-9.36 4.313-5.987 1.436-13.61 1.437c-7.398 0-14.046-1.39-19.952-4.172q-8.86-4.17-13.907-12.531-5.031-8.356-5.03-20.89 0-9.217 2.952-15.985 2.954-6.762 7.922-11.156a32.9 32.9 0 0 1 11.234-6.563q6.264-2.156 13.032-2.156 9.936 0 17.36 3.969c4.944 2.636 8.812 6.21 11.593 10.718q4.172 6.768 4.172 15.704-.002 4.472-2.453 6.78-2.44 2.298-6.766 2.86ZM532.358 68.969q9.373 0 17 4.11 7.64 4.095 12.093 12.234c2.977 5.43 4.469 12.125 4.469 20.093q0 12.096-4.687 20.313-4.677 8.204-13.172 12.453-8.502 4.249-19.875 4.25-8.941 0-15.344-2.156c-4.274-1.438-7.852-3.117-10.734-5.047q-3.019-2.156-4.532-4.75-1.516-2.59-1.515-6.047V78.75h21.172v44.094q1.733 1.002 4.468 1.875 2.732.86 6.203.86c4.895 0 8.805-1.68 11.735-5.048q4.39-5.045 4.39-15.125-.001-10.23-4.25-14.906-4.253-4.687-11.312-4.687-4.61 0-8.219 1.734-3.595 1.722-6.172 3.89l-.578-17.296q3.31-1.857 8.125-3.516c3.219-1.101 6.797-1.656 10.735-1.656m-14.97 14.828h-21.327V46.485q1.295-.422 3.89-.86 2.59-.435 5.625-.437 6.187.002 9 2.172 2.813 2.156 2.813 7.921Zm0 0"/></g></g></g></g></mask></defs><g clip-path="url(#e)"><g clip-path="url(#f)"><path fill="url(#g)" d="m427.797 145.582-102.48-251.105L-35.208 40.832l102.48 251.106Zm0 0"/></g></g><path fill="#fff9f6" d="M57.785 46.121h63.238q1.537.001 3.043.3 1.505.299 2.922.884a15.5 15.5 0 0 1 5.063 3.37 15.8 15.8 0 0 1 1.937 2.356 15.4 15.4 0 0 1 1.442 2.692q.586 1.412.886 2.918.3 1.5.301 3.03v63.071a15.56 15.56 0 0 1-2.629 8.64 15.57 15.57 0 0 1-7 5.727 15.6 15.6 0 0 1-5.965 1.184H57.785q-1.536 0-3.043-.297a15.6 15.6 0 0 1-2.922-.887 15.5 15.5 0 0 1-5.062-3.37 15.8 15.8 0 0 1-1.938-2.356 15.4 15.4 0 0 1-1.441-2.692 15.5 15.5 0 0 1-1.188-5.949v-63.07q.001-1.53.301-3.031.3-1.506.887-2.918c.39-.946.871-1.84 1.441-2.692a15.57 15.57 0 0 1 7-5.727q1.417-.584 2.922-.882 1.507-.3 3.043-.3m0 0"/><path fill="#05a85a" d="M82.914 58.188c2.996-.32 5.656 1.433 6.488 4.285.145.504.22 1.043.235 1.57.035 1.125.011 2.25.011 3.375a.194.194 0 0 1-.191.191c-.824.032-1.629-.007-2.418-.265-2.473-.813-4.113-3.07-4.14-5.711-.012-1.074 0-2.145 0-3.215M97.266 63.203h-.004c.265 2.34-1.41 4.336-3.672 4.402-1.278.04-2.453-1.05-1.914-2.207.258-.55.648-1.039 1.199-1.457a3.47 3.47 0 0 1 2.098-.734c.761-.012 1.52-.004 2.293-.004m0 0"/><g clip-path="url(#h)"><g clip-path="url(#i)"><path fill="url(#j)" d="M146.066 94.64 86.824 42.532l-52.707 59.602 59.242 52.11Zm0 0"/></g></g><path fill="#fffcfa" d="M171.941 74.387q3.135-.001 4.782-1.414 1.717-1.493 1.718-4.473 0-2.831-1.793-4.32-1.72-1.566-5.082-1.567-1.194 0-2.015.075-.75 0-1.57.148v11.55Zm-3.886 23.922q-.82.222-2.614.445a27 27 0 0 1-3.437.226q-1.722 0-3.063-.3-1.27-.223-2.168-.895-.897-.667-1.343-1.863-.45-1.19-.45-3.129V57.695c0-1.043.274-1.84.82-2.383q.897-.896 2.391-1.417c1.696-.594 3.614-1.02 5.754-1.266a49 49 0 0 1 6.575-.45c6.875 0 12.128 1.47 15.765 4.4q5.456 4.395 5.457 11.921-.002 3.651-1.199 6.633a13.5 13.5 0 0 1-3.434 5.066q-2.244 2.086-5.754 3.281-3.438 1.116-7.996 1.118h-5.304ZM215.531 99.797c-2.937 0-5.68-.395-8.219-1.192q-3.738-1.264-6.574-3.726-2.764-2.457-4.41-6.184-1.57-3.726-1.57-8.718 0-4.917 1.57-8.422 1.646-3.574 4.258-5.813a16.2 16.2 0 0 1 5.98-3.351 21.6 21.6 0 0 1 6.871-1.118q3.96-.002 7.176 1.192 3.288 1.19 5.602 3.277a13.9 13.9 0 0 1 3.66 4.992q1.348 2.908 1.348 6.336c0 1.688-.477 2.98-1.422 3.875q-1.419 1.341-3.961 1.715l-18.453 2.758q.82 2.456 3.363 3.723c1.691.796 3.637 1.195 5.828 1.195q3.06-.001 5.75-.746 2.767-.82 4.484-1.863 1.195.744 2.02 2.085.82 1.343.82 2.833-.001 3.351-3.136 4.992c-1.594.843-3.391 1.418-5.383 1.715q-2.988.445-5.602.445m-2.094-29.285q-1.794 0-3.136.597c-.848.399-1.543.918-2.094 1.563a6.4 6.4 0 0 0-1.27 2.09 9 9 0 0 0-.449 2.308l12.778-2.086q-.222-1.493-1.645-2.98-1.418-1.493-4.184-1.492M252.875 90.559q1.272 0 2.766-.223c1.047-.2 1.816-.45 2.316-.746v-5.961l-5.379.445c-1.394.102-2.543.399-3.437.895-.899.496-1.344 1.242-1.344 2.234q-.002 1.494 1.121 2.461c.797.598 2.113.895 3.957.895m-.598-29.286q4.037 0 7.325.82c2.242.544 4.132 1.391 5.675 2.532a10.8 10.8 0 0 1 3.664 4.25q1.271 2.532 1.27 6.035v16.692q-.001 1.938-1.121 3.203a10.5 10.5 0 0 1-2.54 2.086q-4.857 2.906-13.675 2.906-3.96.001-7.172-.742c-2.094-.5-3.91-1.243-5.453-2.239a10.66 10.66 0 0 1-3.512-3.8q-1.195-2.31-1.195-5.364 0-5.145 3.062-7.898c2.043-1.84 5.204-2.98 9.489-3.43l9.789-1.043v-.52q-.001-2.16-1.942-3.058-1.87-.968-5.457-.969-2.836 0-5.527.598-2.69.597-4.86 1.492c-.644-.449-1.195-1.12-1.64-2.011a6.7 6.7 0 0 1-.672-2.907q-.001-1.94.895-3.058.972-1.19 2.914-2.012c1.445-.547 3.136-.941 5.082-1.191q2.989-.371 5.601-.372M298.45 71.258q-1.87 0-3.587.597a8.4 8.4 0 0 0-2.914 1.786q-1.196 1.12-1.941 2.832-.75 1.714-.75 4.027-.002 4.616 2.617 6.93c1.793 1.539 3.957 2.308 6.5 2.308q2.24.001 3.887-.52a25 25 0 0 0 2.914-1.12c.992.695 1.742 1.468 2.242 2.312q.745 1.19.746 2.906-.001 3.053-2.914 4.77-2.913 1.636-8.07 1.637c-3.137 0-5.98-.446-8.52-1.34q-3.808-1.416-6.574-3.875-2.69-2.537-4.184-6.035-1.495-3.503-1.496-7.75 0-4.922 1.57-8.57 1.646-3.726 4.41-6.11 2.762-2.387 6.348-3.578 3.662-1.194 7.7-1.192 5.38 0 8.293 1.938 2.913 1.934 2.914 4.992c0 .945-.223 1.836-.676 2.684a9.5 9.5 0 0 1-1.567 2.086q-1.27-.597-3.062-1.118-1.793-.597-3.887-.597M350.398 98.531q-.748.222-2.394.45a23 23 0 0 1-3.285.222q-1.647 0-2.989-.223-1.27-.227-2.168-.894c-.597-.45-1.07-1.043-1.417-1.79q-.45-1.192-.45-3.054V76.7q0-3.056-1.566-4.25-1.5-1.265-3.738-1.265-1.494.001-2.84.37c-.899.25-1.617.548-2.164.895v26.082q-.749.222-2.395.45a23 23 0 0 1-3.285.222q-1.647 0-2.988-.223-1.272-.227-2.168-.894c-.598-.45-1.07-1.043-1.418-1.79q-.45-1.192-.45-3.054V50.02a72 72 0 0 1 2.391-.372c1.094-.199 2.192-.3 3.285-.3 1.098 0 2.067.078 2.914.226q1.347.222 2.243.895.895.668 1.347 1.863c.348.742.524 1.738.524 2.98v7.301c.644-.246 1.617-.52 2.91-.82q2.017-.521 4.41-.52 7.395 0 11.508 3.727c2.789 2.434 4.183 6.082 4.183 10.953Zm0 0"/><path fill="#fffcfa" fill-rule="evenodd" d="M163.98 134.176c6.36 1.625 12.805-2.336 14.391-8.848s-2.285-13.105-8.648-14.73c-6.36-1.621-12.801 2.34-14.387 8.851s2.285 13.106 8.644 14.727m5.497-16.586c1.644.582 2.847 1.45 2.613 3.066-.172 1.184-.813 1.758-1.664 1.957 1.168.625 1.762 1.578 1.195 3.235-.703 2.058-2.371 2.23-4.594 1.8l-.539 2.211-1.304-.332.535-2.183q-.508-.128-1.04-.274l-.534 2.192-1.301-.332.539-2.215c-.121-.031-.246-.067-.367-.098-.188-.05-.371-.101-.563-.148l-1.695-.434.648-1.527s.957.262.946.242c.37.094.53-.152.597-.316l.852-3.496.137.035a1 1 0 0 0-.133-.043l.605-2.496c.016-.282-.078-.641-.605-.778.02-.011-.946-.238-.946-.238l.344-1.426 1.797.461v.008q.405.1.832.2l.535-2.192 1.301.332-.523 2.148c.347.082.699.164 1.042.25l.52-2.133 1.305.332Zm-4.122 7.941c1.063.29 3.387.918 3.758-.601.38-1.555-1.875-2.07-2.976-2.325l-.32-.074-.715 2.934q.112.03.253.066m1.004-4.289c.887.242 2.82.77 3.157-.61.343-1.413-1.536-1.839-2.453-2.046q-.159-.034-.27-.063l-.648 2.665q.092.024.214.054m0 0"/><path fill="#fffcfa" d="M189.777 117.586c.965 0 1.797.18 2.496.527q1.05.523 1.747 1.414c.457.594.8 1.293 1.02 2.09q.327 1.202.327 2.586 0 2.123-.765 4.012c-.512 1.265-1.204 2.36-2.086 3.293a9.9 9.9 0 0 1-3.13 2.215c-1.198.543-2.503.812-3.902.812q-.275 0-.949-.012c-.45-.011-.969-.058-1.547-.136a19 19 0 0 1-1.847-.371 9.2 9.2 0 0 1-1.852-.68l5.2-22.36 4.66-.738-1.864 7.934c.399-.184.8-.324 1.2-.43a5.3 5.3 0 0 1 1.292-.156m-3.906 13.168q1.053-.001 1.984-.524a5.2 5.2 0 0 0 1.61-1.398 7.2 7.2 0 0 0 1.066-1.984q.388-1.108.39-2.309 0-1.474-.48-2.305c-.32-.554-.914-.832-1.773-.832-.281 0-.645.055-1.098.153q-.673.157-1.218.648l-1.98 8.426.315.062c.086.02.184.036.282.047.101.012.219.016.363.016zM200.2 134.11h-4.45l3.754-16.18h4.48Zm2.163-18.15a2.72 2.72 0 0 1-1.683-.57c-.504-.374-.754-.956-.754-1.738q.001-.644.254-1.21c.172-.383.398-.708.68-.989.28-.273.605-.496.972-.66q.561-.246 1.191-.246.932 0 1.68.57.752.571.754 1.738 0 .646-.258 1.215a3.18 3.18 0 0 1-1.652 1.645 2.8 2.8 0 0 1-1.184.246M207.883 113.898l4.66-.738-1.145 4.77h4.989l-.903 3.754h-4.957l-1.32 5.656a6.4 6.4 0 0 0-.21 1.324q-.035.614.148 1.059.18.45.644.691c.313.164.754.25 1.34.25.476 0 .945-.047 1.398-.14q.674-.137 1.364-.383l.332 3.507a16 16 0 0 1-1.953.582q-1.05.247-2.493.247-2.072 0-3.218-.63-1.142-.63-1.621-1.726c-.32-.723-.461-1.562-.422-2.504q.059-1.416.422-2.984ZM216.191 127.648q0-2.091.66-3.937a9.8 9.8 0 0 1 1.895-3.23 8.9 8.9 0 0 1 2.992-2.184c1.168-.531 2.477-.8 3.918-.8q1.357-.001 2.422.26 1.066.265 1.938.692l-1.532 3.57a15 15 0 0 0-1.25-.445c-.43-.136-.953-.199-1.574-.199-1.488 0-2.66.523-3.535 1.566-.867 1.043-1.309 2.45-1.309 4.215 0 1.047.223 1.89.664 2.54q.664.967 2.434.968.874 0 1.684-.184a8.4 8.4 0 0 0 1.445-.464l.332 3.66q-.843.339-1.867.601-1.02.26-2.434.262-1.862-.002-3.156-.555-1.29-.555-2.133-1.492a5.65 5.65 0 0 1-1.215-2.199 9.2 9.2 0 0 1-.379-2.645M235.95 134.54c-1.063 0-1.985-.169-2.766-.497-.778-.328-1.426-.785-1.938-1.383-.512-.594-.894-1.297-1.156-2.105-.262-.809-.387-1.707-.387-2.692q-.001-1.845.582-3.691.584-1.844 1.73-3.32a9.3 9.3 0 0 1 2.794-2.418c1.097-.625 2.363-.938 3.785-.938 1.043 0 1.957.168 2.754.492a5.2 5.2 0 0 1 1.953 1.387 6 6 0 0 1 1.152 2.105q.392 1.215.39 2.692c0 1.226-.19 2.46-.57 3.691a10.9 10.9 0 0 1-1.68 3.325 8.9 8.9 0 0 1-2.78 2.41q-1.666.94-3.864.941m2.222-13.165a2.76 2.76 0 0 0-1.738.582q-.754.585-1.262 1.477a7.4 7.4 0 0 0-.77 1.953 8.5 8.5 0 0 0-.254 2.015c0 1.028.16 1.825.48 2.399q.482.862 1.743.863c.664 0 1.242-.195 1.746-.586q.746-.586 1.258-1.476a7.3 7.3 0 0 0 .77-1.954 8.7 8.7 0 0 0 .253-2.015q0-1.536-.48-2.399-.48-.86-1.746-.859M249.691 134.11h-4.453l3.758-16.18h4.48Zm2.16-18.15a2.7 2.7 0 0 1-1.68-.57c-.503-.374-.753-.956-.753-1.738q0-.644.258-1.21c.168-.383.394-.708.676-.989.277-.273.605-.496.976-.66a2.9 2.9 0 0 1 1.184-.246c.625 0 1.183.191 1.683.57q.755.571.754 1.738c0 .43-.09.836-.258 1.215a3.2 3.2 0 0 1-.671.985 3.3 3.3 0 0 1-.977.66c-.375.168-.77.246-1.191.246M256.684 118.668c.336-.102.714-.223 1.125-.356q.615-.2 1.382-.367a16 16 0 0 1 1.711-.277c.633-.074 1.352-.11 2.149-.11q3.52.002 4.855 2.094c.895 1.395 1.047 3.301.469 5.72l-2.047 8.733h-4.476l1.98-8.55q.182-.799.29-1.555c.07-.5.065-.937-.017-1.32a1.63 1.63 0 0 0-.554-.926q-.438-.351-1.34-.352a8.8 8.8 0 0 0-1.774.188l-2.914 12.515h-4.48Zm0 0"/><g clip-path="url(#k)"><g clip-path="url(#l)" transform="translate(87)"><g clip-path="url(#m)"><g clip-path="url(#n)" transform="translate(1)"><g clip-path="url(#o)" mask="url(#p)"><g clip-path="url(#q)"><g clip-path="url(#r)"><path fill="url(#s)" d="M.547 0v187h585.555V0Zm0 0"/></g></g></g></g></g></g></g></svg>