<svg xmlns="http://www.w3.org/2000/svg" width="900" height="250" version="1.0" viewBox="0 0 675 187.5"><defs><clipPath id="b"><path d="M1.08 25.25h653.9v137.43H1.09Zm0 0"/></clipPath><clipPath id="c"><path d="M32.5 25.25h590.84a31.4 31.4 0 0 1 31.41 31.41v74.61a31.4 31.4 0 0 1-31.41 31.41H32.5a31.4 31.4 0 0 1-31.42-31.41v-74.6A31.4 31.4 0 0 1 32.5 25.24m0 0"/></clipPath><clipPath id="e"><path d="M.08.25h653.67v137.43H.08Zm0 0"/></clipPath><clipPath id="f"><path d="M31.5.25h590.84a31.4 31.4 0 0 1 31.41 31.41v74.61a31.4 31.4 0 0 1-31.41 31.41H31.5A31.4 31.4 0 0 1 .08 106.27v-74.6A31.4 31.4 0 0 1 31.5.24m0 0"/></clipPath><clipPath id="d"><path d="M0 0h654v138H0z"/></clipPath><clipPath id="h"><path d="M49 69h54v62H49Zm0 0"/></clipPath><clipPath id="i"><path d="M102.36 88.34c0 13.62-11.93 26.54-26.65 26.54-5.33 0-10.3-1.7-14.47-4.52v13.56a6.09 6.09 0 1 1-12.17 0V88.34c0-11.79 8.93-19.73 20.87-18.8 3.83.3 7.72.3 11.55 0 11.94-.93 20.87 7.01 20.87 18.8m-41.12 2.22v-.1c.03-6.6 5.3-10.94 12.15-9.92q2.12.31 4.23 0c6.88-1.03 12.15 3.33 12.15 9.96 0 7.3-6.39 14.22-14.27 14.22-7.86 0-14.23-6.88-14.26-14.16m0 0" clip-rule="evenodd"/></clipPath><clipPath id="k"><path d="M0 0h273v187H0z"/></clipPath><clipPath id="a"><path d="M0 0h656v187H0z"/></clipPath><radialGradient id="j" cx="0" cy="0" r="85.93" fx="0" fy="0" gradientTransform="matrix(-.62 .7047 -.7951 -.703 102.36 69.46)" gradientUnits="userSpaceOnUse"><stop offset="0" stop-color="#ffa24c"/><stop offset=".01" stop-color="#ffa14c"/><stop offset=".02" stop-color="#ffa04c"/><stop offset=".03" stop-color="#ff9f4c"/><stop offset=".04" stop-color="#ff9e4c"/><stop offset=".05" stop-color="#ff9d4c"/><stop offset=".07" stop-color="#ff9c4d"/><stop offset=".08" stop-color="#ff9b4d"/><stop offset=".09" stop-color="#ff9a4d"/><stop offset=".1" stop-color="#ff994d"/><stop offset=".11" stop-color="#ff994d"/><stop offset=".13" stop-color="#ff984d"/><stop offset=".14" stop-color="#ff974d"/><stop offset=".15" stop-color="#ff964d"/><stop offset=".16" stop-color="#ff954d"/><stop offset=".17" stop-color="#ff944d"/><stop offset=".18" stop-color="#ff934e"/><stop offset=".2" stop-color="#ff924e"/><stop offset=".21" stop-color="#ff914e"/><stop offset=".22" stop-color="#ff904e"/><stop offset=".23" stop-color="#ff8f4e"/><stop offset=".24" stop-color="#ff8e4e"/><stop offset=".25" stop-color="#ff8d4e"/><stop offset=".26" stop-color="#ff8d4e"/><stop offset=".27" stop-color="#ff8c4e"/><stop offset=".28" stop-color="#ff8c4e"/><stop offset=".29" stop-color="#ff8b4e"/><stop offset=".29" stop-color="#ff8a4e"/><stop offset=".3" stop-color="#ff8a4e"/><stop offset=".31" stop-color="#ff894e"/><stop offset=".32" stop-color="#ff884f"/><stop offset=".32" stop-color="#ff884f"/><stop offset=".33" stop-color="#ff874f"/><stop offset=".34" stop-color="#ff874f"/><stop offset=".35" stop-color="#ff864f"/><stop offset=".36" stop-color="#ff854f"/><stop offset=".36" stop-color="#ff854f"/><stop offset=".37" stop-color="#ff844f"/><stop offset=".38" stop-color="#ff834f"/><stop offset=".39" stop-color="#ff834f"/><stop offset=".39" stop-color="#ff824f"/><stop offset=".4" stop-color="#ff824f"/><stop offset=".41" stop-color="#ff814f"/><stop offset=".42" stop-color="#ff804f"/><stop offset=".43" stop-color="#ff804f"/><stop offset=".43" stop-color="#ff7f4f"/><stop offset=".44" stop-color="coral"/><stop offset=".45" stop-color="#ff7e50"/><stop offset=".46" stop-color="#ff7d50"/><stop offset=".46" stop-color="#ff7d50"/><stop offset=".47" stop-color="#ff7c50"/><stop offset=".48" stop-color="#ff7b50"/><stop offset=".49" stop-color="#ff7b50"/><stop offset=".5" stop-color="#ff7a50"/><stop offset=".5" stop-color="#ff7a50"/><stop offset=".51" stop-color="#ff7950"/><stop offset=".51" stop-color="#ff7950"/><stop offset=".52" stop-color="#ff7950"/><stop offset=".52" stop-color="#ff784f"/><stop offset=".52" stop-color="#ff784f"/><stop offset=".53" stop-color="#ff784f"/><stop offset=".53" stop-color="#ff774f"/><stop offset=".54" stop-color="#ff774f"/><stop offset=".54" stop-color="#ff764f"/><stop offset=".54" stop-color="#ff764f"/><stop offset=".55" stop-color="#ff764f"/><stop offset=".55" stop-color="#ff754f"/><stop offset=".55" stop-color="#ff754e"/><stop offset=".56" stop-color="#ff754e"/><stop offset=".56" stop-color="#ff744e"/><stop offset=".57" stop-color="#ff744e"/><stop offset=".57" stop-color="#ff744e"/><stop offset=".57" stop-color="#ff734e"/><stop offset=".58" stop-color="#ff734e"/><stop offset=".58" stop-color="#ff734e"/><stop offset=".59" stop-color="#ff724e"/><stop offset=".59" stop-color="#ff724d"/><stop offset=".59" stop-color="#ff724d"/><stop offset=".6" stop-color="#ff714d"/><stop offset=".6" stop-color="#ff714d"/><stop offset=".61" stop-color="#ff704d"/><stop offset=".61" stop-color="#ff704d"/><stop offset=".61" stop-color="#ff704d"/><stop offset=".62" stop-color="#ff6f4d"/><stop offset=".62" stop-color="#ff6f4d"/><stop offset=".63" stop-color="#ff6f4c"/><stop offset=".63" stop-color="#ff6e4c"/><stop offset=".64" stop-color="#ff6d4c"/><stop offset=".64" stop-color="#ff6d4c"/><stop offset=".65" stop-color="#ff6c4c"/><stop offset=".66" stop-color="#ff6b4b"/><stop offset=".67" stop-color="#ff6b4b"/><stop offset=".68" stop-color="#ff6a4b"/><stop offset=".68" stop-color="#ff694b"/><stop offset=".69" stop-color="#ff694b"/><stop offset=".7" stop-color="#ff684a"/><stop offset=".71" stop-color="#ff674a"/><stop offset=".71" stop-color="#ff664a"/><stop offset=".72" stop-color="#ff664a"/><stop offset=".73" stop-color="#ff6549"/><stop offset=".74" stop-color="#ff6449"/><stop offset=".75" stop-color="#ff6449"/><stop offset=".75" stop-color="#ff6349"/><stop offset=".76" stop-color="#ff6349"/><stop offset=".76" stop-color="#ff6249"/><stop offset=".77" stop-color="#ff6249"/><stop offset=".77" stop-color="#ff6248"/><stop offset=".77" stop-color="#ff6148"/><stop offset=".78" stop-color="#ff6148"/><stop offset=".78" stop-color="#ff6148"/><stop offset=".79" stop-color="#ff6048"/><stop offset=".79" stop-color="#ff6048"/><stop offset=".79" stop-color="#ff6048"/><stop offset=".8" stop-color="#ff5f48"/><stop offset=".8" stop-color="#ff5f48"/><stop offset=".8" stop-color="#ff5e47"/><stop offset=".81" stop-color="#ff5e47"/><stop offset=".81" stop-color="#ff5e47"/><stop offset=".82" stop-color="#ff5d47"/><stop offset=".82" stop-color="#ff5d47"/><stop offset=".83" stop-color="#ff5c47"/><stop offset=".84" stop-color="#ff5b46"/><stop offset=".85" stop-color="#ff5a46"/><stop offset=".86" stop-color="#ff5a46"/><stop offset=".86" stop-color="#ff5946"/><stop offset=".87" stop-color="#ff5846"/><stop offset=".88" stop-color="#ff5845"/><stop offset=".88" stop-color="#ff5745"/><stop offset=".89" stop-color="#ff5745"/><stop offset=".89" stop-color="#ff5745"/><stop offset=".89" stop-color="#ff5645"/><stop offset=".9" stop-color="#ff5645"/><stop offset=".9" stop-color="#ff5645"/><stop offset=".91" stop-color="#ff5545"/><stop offset=".91" stop-color="#f54"/><stop offset=".92" stop-color="#ff5444"/><stop offset=".93" stop-color="#ff5344"/><stop offset=".93" stop-color="#ff5344"/><stop offset=".94" stop-color="#ff5244"/><stop offset=".95" stop-color="#ff5243"/><stop offset=".95" stop-color="#ff5143"/><stop offset=".95" stop-color="#ff5143"/><stop offset=".96" stop-color="#ff5143"/><stop offset=".96" stop-color="#ff5043"/><stop offset=".97" stop-color="#ff4f43"/><stop offset=".98" stop-color="#ff4f43"/><stop offset=".98" stop-color="#ff4e42"/><stop offset=".99" stop-color="#ff4e42"/><stop offset=".99" stop-color="#ff4d42"/><stop offset="1" stop-color="#ff4d42"/></radialGradient><linearGradient id="g" x1=".01" x2="1217.56" y1="128" y2="128" gradientTransform="translate(.08 .25)scale(.5369)" gradientUnits="userSpaceOnUse"><stop offset="0" stop-color="#ff5042"/><stop offset=".01" stop-color="#ff5042"/><stop offset=".02" stop-color="#ff5142"/><stop offset=".02" stop-color="#ff5142"/><stop offset=".03" stop-color="#ff5243"/><stop offset=".04" stop-color="#ff5243"/><stop offset=".05" stop-color="#ff5343"/><stop offset=".05" stop-color="#ff5343"/><stop offset=".06" stop-color="#ff5443"/><stop offset=".07" stop-color="#ff5443"/><stop offset=".08" stop-color="#f54"/><stop offset=".09" stop-color="#f54"/><stop offset=".09" stop-color="#ff5644"/><stop offset=".1" stop-color="#ff5644"/><stop offset=".11" stop-color="#ff5744"/><stop offset=".12" stop-color="#ff5744"/><stop offset=".13" stop-color="#ff5845"/><stop offset=".13" stop-color="#ff5845"/><stop offset=".14" stop-color="#ff5945"/><stop offset=".15" stop-color="#ff5a45"/><stop offset=".16" stop-color="#ff5a45"/><stop offset=".16" stop-color="#ff5b46"/><stop offset=".17" stop-color="#ff5b46"/><stop offset=".18" stop-color="#ff5c46"/><stop offset=".19" stop-color="#ff5c46"/><stop offset=".2" stop-color="#ff5d46"/><stop offset=".2" stop-color="#ff5d46"/><stop offset=".21" stop-color="#ff5e47"/><stop offset=".22" stop-color="#ff5e47"/><stop offset=".23" stop-color="#ff5f47"/><stop offset=".23" stop-color="#ff5f47"/><stop offset=".24" stop-color="#ff6047"/><stop offset=".25" stop-color="#ff6047"/><stop offset=".26" stop-color="#ff6148"/><stop offset=".27" stop-color="#ff6148"/><stop offset=".27" stop-color="#ff6248"/><stop offset=".28" stop-color="#ff6248"/><stop offset=".29" stop-color="#ff6348"/><stop offset=".3" stop-color="#ff6348"/><stop offset=".3" stop-color="#ff6449"/><stop offset=".31" stop-color="#ff6449"/><stop offset=".32" stop-color="#ff6549"/><stop offset=".33" stop-color="#ff6549"/><stop offset=".34" stop-color="#ff6649"/><stop offset=".34" stop-color="#ff6649"/><stop offset=".35" stop-color="#ff674a"/><stop offset=".36" stop-color="#ff674a"/><stop offset=".37" stop-color="#ff684a"/><stop offset=".38" stop-color="#ff684a"/><stop offset=".38" stop-color="#ff694a"/><stop offset=".39" stop-color="#ff6a4b"/><stop offset=".4" stop-color="#ff6a4b"/><stop offset=".41" stop-color="#ff6b4b"/><stop offset=".41" stop-color="#ff6b4b"/><stop offset=".42" stop-color="#ff6c4b"/><stop offset=".43" stop-color="#ff6c4b"/><stop offset=".44" stop-color="#ff6d4c"/><stop offset=".45" stop-color="#ff6d4c"/><stop offset=".45" stop-color="#ff6e4c"/><stop offset=".46" stop-color="#ff6e4c"/><stop offset=".47" stop-color="#ff6f4c"/><stop offset=".48" stop-color="#ff6f4c"/><stop offset=".48" stop-color="#ff704d"/><stop offset=".49" stop-color="#ff704d"/><stop offset=".5" stop-color="#ff714d"/><stop offset=".51" stop-color="#ff714d"/><stop offset=".52" stop-color="#ff724d"/><stop offset=".52" stop-color="#ff734d"/><stop offset=".53" stop-color="#ff744d"/><stop offset=".54" stop-color="#ff744d"/><stop offset=".55" stop-color="#ff754d"/><stop offset=".55" stop-color="#ff764d"/><stop offset=".56" stop-color="#ff764d"/><stop offset=".57" stop-color="#ff774d"/><stop offset=".58" stop-color="#ff784d"/><stop offset=".59" stop-color="#ff794d"/><stop offset=".59" stop-color="#ff794d"/><stop offset=".6" stop-color="#ff7a4d"/><stop offset=".61" stop-color="#ff7b4d"/><stop offset=".62" stop-color="#ff7c4d"/><stop offset=".63" stop-color="#ff7c4d"/><stop offset=".63" stop-color="#ff7d4d"/><stop offset=".64" stop-color="#ff7e4d"/><stop offset=".65" stop-color="#ff7f4d"/><stop offset=".66" stop-color="#ff7f4d"/><stop offset=".66" stop-color="#ff804d"/><stop offset=".67" stop-color="#ff814d"/><stop offset=".68" stop-color="#ff824d"/><stop offset=".69" stop-color="#ff824d"/><stop offset=".7" stop-color="#ff834d"/><stop offset=".7" stop-color="#ff844d"/><stop offset=".71" stop-color="#ff844d"/><stop offset=".72" stop-color="#ff854d"/><stop offset=".73" stop-color="#ff864d"/><stop offset=".73" stop-color="#ff874d"/><stop offset=".74" stop-color="#ff874d"/><stop offset=".75" stop-color="#ff884d"/><stop offset=".76" stop-color="#ff894d"/><stop offset=".77" stop-color="#ff8a4d"/><stop offset=".77" stop-color="#ff8a4d"/><stop offset=".78" stop-color="#ff8b4d"/><stop offset=".79" stop-color="#ff8c4d"/><stop offset=".8" stop-color="#ff8d4d"/><stop offset=".8" stop-color="#ff8d4d"/><stop offset=".81" stop-color="#ff8e4d"/><stop offset=".82" stop-color="#ff8f4d"/><stop offset=".83" stop-color="#ff8f4d"/><stop offset=".84" stop-color="#ff904d"/><stop offset=".84" stop-color="#ff914d"/><stop offset=".85" stop-color="#ff924d"/><stop offset=".86" stop-color="#ff924d"/><stop offset=".87" stop-color="#ff934d"/><stop offset=".88" stop-color="#ff944d"/><stop offset=".88" stop-color="#ff954d"/><stop offset=".89" stop-color="#ff954d"/><stop offset=".9" stop-color="#ff964d"/><stop offset=".91" stop-color="#ff974d"/><stop offset=".91" stop-color="#ff984d"/><stop offset=".92" stop-color="#ff984d"/><stop offset=".93" stop-color="#ff994d"/><stop offset=".94" stop-color="#ff9a4d"/><stop offset=".95" stop-color="#ff9a4d"/><stop offset=".95" stop-color="#ff9b4d"/><stop offset=".96" stop-color="#ff9c4d"/><stop offset=".97" stop-color="#ff9d4d"/><stop offset=".98" stop-color="#ff9d4d"/><stop offset=".98" stop-color="#ff9e4d"/><stop offset=".99" stop-color="#ff9f4d"/><stop offset="1" stop-color="#ffa04d"/></linearGradient></defs><g clip-path="url(#a)" transform="translate(10)"><g clip-path="url(#b)"><g clip-path="url(#c)"><g clip-path="url(#d)" transform="translate(1 25)"><g clip-path="url(#e)"><g clip-path="url(#f)"><path fill="url(#g)" d="M.08.25v137.43h653.67V.25Zm0 0"/></g></g></g></g></g><path fill="#fff9f6" d="M42.8 45.79h64.43a16 16 0 0 1 14.02 8.41 17 17 0 0 1 1.19 2.89 17 17 0 0 1 .6 3.06q.08.78.08 1.56v64.6a16 16 0 0 1-7.06 13.23 17 17 0 0 1-4.22 2 16 16 0 0 1-4.61.69H42.79a15 15 0 0 1-3.1-.3 17 17 0 0 1-2.98-.91 16 16 0 0 1-5.15-3.46 15 15 0 0 1-2.78-3.75 16 16 0 0 1-1.8-5.95q-.07-.78-.07-1.56V61.71a16 16 0 0 1 3.6-10.1 16 16 0 0 1 3.45-3.14 16 16 0 0 1 8.83-2.68m0 0"/><path fill="#05a85a" d="M68.4 58.14a6.07 6.07 0 0 1 6.85 6c.04 1.15.01 2.3.01 3.46 0 .1-.09.19-.2.19-.83.03-1.65 0-2.46-.27a6.1 6.1 0 0 1-4.21-5.85q-.01-1.65 0-3.3M83.02 63.28a3.95 3.95 0 0 1-3.74 4.5c-1.3.05-2.5-1.07-1.95-2.25a3.9 3.9 0 0 1 3.36-2.25zm0 0"/><g clip-path="url(#h)"><g clip-path="url(#i)"><path fill="url(#j)" d="M132.75 95.47 72.38 42.11l-53.7 61.04 60.36 53.36Zm0 0"/></g></g><path fill="#fffcfa" d="M159.12 74.73q3.2 0 4.87-1.45 1.75-1.52 1.75-4.58 0-2.9-1.83-4.42-1.74-1.6-5.18-1.6-1.21 0-2.05.07-.75 0-1.6.16v11.82Zm-3.96 24.5q-.84.22-2.67.46-1.75.23-3.5.23t-3.12-.31a5 5 0 0 1-2.21-.91 4 4 0 0 1-1.37-1.91 9 9 0 0 1-.46-3.2V57.63q0-1.6.84-2.44.91-.92 2.44-1.45 2.59-.92 5.86-1.3 3.35-.45 6.7-.46 10.5 0 16.06 4.5t5.56 12.21q0 3.75-1.22 6.8a14 14 0 0 1-3.5 5.18 16 16 0 0 1-5.86 3.36 26 26 0 0 1-8.15 1.15h-5.4ZM203.54 100.76q-4.5 0-8.38-1.22a20 20 0 0 1-6.7-3.82 18 18 0 0 1-4.5-6.33 23 23 0 0 1-1.6-8.93q0-5.04 1.6-8.63a17 17 0 0 1 4.34-5.95 16.5 16.5 0 0 1 6.1-3.43 22 22 0 0 1 7-1.15q4.04 0 7.31 1.22 3.36 1.23 5.71 3.36a14 14 0 0 1 3.73 5.11 15 15 0 0 1 1.37 6.49q0 2.6-1.45 3.97-1.44 1.37-4.03 1.75l-18.8 2.83a6.5 6.5 0 0 0 3.42 3.81 14 14 0 0 0 5.94 1.22q3.12 0 5.86-.76 2.82-.84 4.57-1.9 1.22.75 2.06 2.13.83 1.38.83 2.9 0 3.44-3.2 5.11a17 17 0 0 1-5.48 1.76q-3.05.45-5.7.46m-2.14-30q-1.83 0-3.2.61-1.29.62-2.13 1.6-.83.93-1.3 2.14-.37 1.16-.45 2.37l13.02-2.14a5.8 5.8 0 0 0-1.68-3.05q-1.44-1.53-4.26-1.52M241.59 91.3q1.29 0 2.82-.24a8 8 0 0 0 2.36-.76v-6.1l-5.48.45q-2.15.15-3.5.92a2.5 2.5 0 0 0-1.38 2.29 3.2 3.2 0 0 0 1.14 2.52q1.22.9 4.04.91m-.61-30q4.11 0 7.46.84 3.42.84 5.79 2.6a11 11 0 0 1 3.73 4.35 14 14 0 0 1 1.29 6.18v17.1q0 1.97-1.14 3.27-1.06 1.23-2.59 2.14-4.95 2.98-13.93 2.98-4.04 0-7.31-.77a18 18 0 0 1-5.56-2.29 11 11 0 0 1-3.58-3.89 12 12 0 0 1-1.21-5.5q0-5.25 3.12-8.08t9.66-3.51l9.98-1.07v-.54a3.2 3.2 0 0 0-1.98-3.13q-1.9-.99-5.56-.99-2.89 0-5.63.62-2.75.6-4.95 1.52a5.3 5.3 0 0 1-1.68-2.06 7 7 0 0 1-.68-2.98q0-1.98.91-3.13a7.5 7.5 0 0 1 2.97-2.05q2.2-.85 5.18-1.23 3.04-.38 5.71-.38M288.03 71.53q-1.91 0-3.66.6a9 9 0 0 0-2.97 1.84 9 9 0 0 0-1.97 2.9 10 10 0 0 0-.77 4.12q0 4.73 2.67 7.1a9.8 9.8 0 0 0 6.62 2.36 13 13 0 0 0 3.96-.53q1.67-.54 2.97-1.15a8 8 0 0 1 2.28 2.37q.75 1.21.76 2.98 0 3.12-2.96 4.88-2.97 1.68-8.23 1.68-4.8 0-8.68-1.38a21 21 0 0 1-6.7-3.96 18 18 0 0 1-4.26-6.18 20 20 0 0 1-1.52-7.94q0-5.04 1.6-8.77a17 17 0 0 1 4.49-6.26 19 19 0 0 1 6.47-3.67q3.73-1.22 7.84-1.22 5.48 0 8.45 1.99 2.97 1.98 2.97 5.1 0 1.47-.69 2.75a10 10 0 0 1-1.6 2.14q-1.28-.6-3.11-1.14-1.83-.61-3.96-.61M340.96 99.46q-.75.22-2.44.46a24 24 0 0 1-6.4 0 4.72 4.72 0 0 1-3.65-2.75 9 9 0 0 1-.45-3.13V77.1q0-3.14-1.6-4.35a5.7 5.7 0 0 0-3.8-1.3q-1.53 0-2.9.38-1.38.38-2.2.92v26.7q-.78.24-2.45.47a24 24 0 0 1-6.39 0 4.73 4.73 0 0 1-3.66-2.75 9 9 0 0 1-.45-3.13V49.78q.84-.15 2.43-.38a19 19 0 0 1 6.32-.08q1.38.23 2.29.91.9.7 1.37 1.91.53 1.16.53 3.06v7.48q.99-.39 2.97-.84 2.06-.54 4.49-.54 7.54 0 11.73 3.82 4.26 3.73 4.26 11.22Zm0 0"/><path fill="#fffcfa" fill-rule="evenodd" d="M151 135.96c6.49 1.66 13.05-2.39 14.67-9.06s-2.33-13.42-8.81-15.08-13.05 2.4-14.66 9.06c-1.62 6.67 2.32 13.42 8.8 15.08m5.6-16.98c1.68.59 2.9 1.48 2.67 3.14-.18 1.2-.83 1.8-1.7 2 1.2.64 1.8 1.62 1.22 3.31-.72 2.1-2.42 2.29-4.68 1.85l-.55 2.26-1.33-.34.54-2.23q-.51-.14-1.06-.29l-.54 2.25-1.32-.34.54-2.27-.37-.1-.57-.15-1.73-.44.66-1.57s.98.27.96.25c.38.1.55-.16.61-.33l.87-3.57.14.03-.14-.05.63-2.55c.01-.29-.09-.66-.63-.8l-.96-.24.35-1.46 1.83.47v.01l.85.2.54-2.24 1.33.34-.53 2.2 1.06.26.53-2.19 1.33.34Zm-4.2 8.13c1.09.3 3.46.94 3.83-.62.4-1.59-1.9-2.12-3.03-2.38l-.32-.07-.73 3zm1.03-4.4c.9.25 2.87.8 3.21-.62.36-1.45-1.56-1.88-2.5-2.1l-.27-.06-.66 2.73zm0 0"/><path fill="#fffcfa" d="M177.3 118.97q1.46 0 2.53.54 1.08.54 1.78 1.45.7.92 1.04 2.14t.34 2.65a10.8 10.8 0 0 1-2.91 7.48q-1.35 1.43-3.19 2.27a9.5 9.5 0 0 1-3.98.83l-.96-.01q-.7-.03-1.57-.14-.9-.14-1.9-.38a9 9 0 0 1-1.87-.7l5.3-22.9 4.74-.75-1.9 8.12q.6-.27 1.23-.44.6-.16 1.31-.16m-3.99 13.5q1.08-.01 2.02-.55a5 5 0 0 0 1.64-1.43 7.3 7.3 0 0 0 1.49-4.4q0-1.5-.5-2.36-.48-.85-1.8-.85-.43 0-1.12.16t-1.24.66l-2.02 8.63.61.11.37.02zM187.91 135.9h-4.53l3.82-16.58h4.57Zm2.2-18.6q-.94 0-1.71-.57-.77-.58-.77-1.78 0-.67.26-1.25a3.4 3.4 0 0 1 1.69-1.68 3 3 0 0 1 2.92.33q.77.58.77 1.78 0 .66-.26 1.24a3.2 3.2 0 0 1-2.9 1.94M195.74 115.2l4.75-.76-1.17 4.88h5.09l-.92 3.85h-5.06l-1.34 5.8q-.2.71-.22 1.35-.03.63.16 1.08.18.46.65.7.47.26 1.37.26.73 0 1.42-.14t1.4-.4l.33 3.6q-.91.34-1.99.6-1.07.25-2.54.25-2.1 0-3.28-.65a3.7 3.7 0 0 1-1.65-1.76 6 6 0 0 1-.43-2.57q.06-1.45.43-3.05ZM204.2 129.28q0-2.15.68-4.03a10 10 0 0 1 1.93-3.32 9 9 0 0 1 3.05-2.23 9.5 9.5 0 0 1 4-.82 10 10 0 0 1 4.43.98l-1.56 3.65q-.6-.25-1.27-.46-.66-.2-1.6-.2-2.28 0-3.6 1.6a6.6 6.6 0 0 0-1.34 4.32q0 1.6.68 2.6t2.48 1a8 8 0 0 0 3.18-.67l.34 3.75q-.85.35-1.9.62-1.04.26-2.48.26-1.9 0-3.22-.56a5.84 5.84 0 0 1-3.41-3.78 10 10 0 0 1-.38-2.71M224.34 136.33a7 7 0 0 1-2.82-.5q-1.2-.5-1.97-1.42a6 6 0 0 1-1.18-2.16 9 9 0 0 1-.4-2.75q0-1.89.6-3.78.6-1.9 1.76-3.4 1.16-1.52 2.85-2.48a7.7 7.7 0 0 1 3.86-.96q1.6 0 2.8.5 1.2.51 1.99 1.42.78.91 1.17 2.16.4 1.25.4 2.75 0 1.9-.58 3.79a11 11 0 0 1-1.71 3.4q-1.13 1.5-2.83 2.47a8 8 0 0 1-3.94.96m2.27-13.48q-1.02 0-1.78.6a5 5 0 0 0-1.28 1.51q-.52.92-.79 2a9 9 0 0 0-.26 2.06q0 1.57.5 2.46.48.88 1.77.88 1.02 0 1.78-.6.75-.6 1.28-1.5.52-.93.79-2 .25-1.1.25-2.07a5 5 0 0 0-.49-2.46q-.5-.88-1.77-.88M238.34 135.9h-4.54l3.83-16.58h4.57Zm2.2-18.6q-.95 0-1.7-.57-.78-.58-.77-1.78 0-.67.25-1.25a3.3 3.3 0 0 1 1.7-1.68 2.9 2.9 0 0 1 2.91.33q.78.58.77 1.78-.01.66-.26 1.24a3.2 3.2 0 0 1-1.68 1.68 3 3 0 0 1-1.22.26M245.46 120.08q.53-.15 1.15-.37.63-.2 1.41-.37a17 17 0 0 1 3.94-.4q3.59 0 4.94 2.15 1.37 2.14.48 5.86l-2.08 8.94h-4.57l2.02-8.76q.19-.81.3-1.59a4 4 0 0 0-.02-1.35q-.12-.58-.57-.95-.45-.36-1.36-.36-.9 0-1.8.19l-2.98 12.82h-4.56Zm0 0"/><g fill="#fff" clip-path="url(#k)" transform="translate(361)"><path d="M49.13 73.8q1.52-.68 4.35-1.43 2.84-.77 5.73-.77 5.12 0 8.5 1.53 3.39 1.52 4.22 4.55l4.28 14.94q1.93 6.76 3.8 13.04a384 384 0 0 1 3.67 13.2h.55a948 948 0 0 0 3.45-21.96q1.5-10.51 2.89-20.74t2.64-21a19.3 19.3 0 0 1 9.4-2.5q4.54 0 7.73 1.94 3.18 1.94 3.18 6.5 0 3.03-.62 8.5-.63 5.45-1.74 12.5a431 431 0 0 1-5.65 29.52q-1.65 7.24-3.32 13.12a82 82 0 0 1-3.18 9.45q-1.8 1.55-5.82 2.7a30 30 0 0 1-8.42 1.18q-5.51 0-9.53-1.6-4-1.58-4.83-4.34-1.4-4.01-3.12-9.4t-3.52-11.82a926 926 0 0 1-3.6-13.2 438 438 0 0 1-3.3 13.48 917 917 0 0 1-3.46 12.79 260 260 0 0 1-3.04 10.21q-1.8 1.55-5.46 2.7a26 26 0 0 1-8.07 1.18q-5.25 0-9.68-1.66-4.43-1.65-5.67-4.28a84 84 0 0 1-3.25-9.6q-1.86-6.44-3.87-14.79-2-8.36-3.8-17.48T7.26 72.5A288 288 0 0 1 4.9 56.94q1.8-1.5 4.77-2.89t6.56-1.39q4.56 0 7.45 2.02 2.9 1.99 3.74 6.83 2.22 12.72 3.66 21.84l2.48 15.6q1.05 6.52 1.87 11.28t1.66 8.64h.7q1.38-5.67 2.61-10.58 1.26-4.9 2.63-9.96 1.39-5.04 2.9-10.9 1.53-5.88 3.2-13.63M134.51 113.62l-.82-13.83 34.26-5.4q-.27-3.84-3.31-7.16-3.03-3.33-8.99-3.33-6.22 0-10.35 4.22-4.15 4.21-4.43 11.95l.7 9.53q1.24 7.6 6.5 10.84t12.43 3.25q5.8 0 10.9-1.65a45 45 0 0 0 8.3-3.46q2.08 1.26 3.4 3.47a9 9 0 0 1 1.3 4.7 8.7 8.7 0 0 1-3.25 6.9q-3.25 2.76-8.98 4.14t-13.06 1.39q-10.65 0-19.14-4a30.5 30.5 0 0 1-13.33-12.03q-4.83-8.02-4.83-20.05 0-8.84 2.83-15.33a30 30 0 0 1 7.6-10.7 32 32 0 0 1 10.77-6.3q6.02-2.08 12.5-2.08 9.55 0 16.66 3.82a28.5 28.5 0 0 1 11.13 10.3q4 6.48 4.01 15.04 0 4.28-2.36 6.5-2.34 2.21-6.48 2.77ZM234.97 68.7q8.98 0 16.31 3.93a28.5 28.5 0 0 1 11.61 11.75q4.28 7.82 4.28 19.28 0 11.61-4.5 19.49t-12.64 11.95-19.06 4.08q-8.57 0-14.72-2.08-6.16-2.07-10.3-4.84a15 15 0 0 1-4.36-4.55 11.4 11.4 0 0 1-1.43-5.81V78.1h20.3v42.28q1.66.98 4.29 1.8t5.94.83q7.05 0 11.26-4.83t4.22-14.52q0-9.8-4.08-14.3t-10.84-4.5q-4.42 0-7.9 1.66a28 28 0 0 0-5.93 3.74l-.55-16.58a47 47 0 0 1 7.8-3.4q4.64-1.58 10.3-1.59M220.6 82.92h-20.45V47.15q1.23-.42 3.71-.83 2.5-.42 5.4-.42 5.94 0 8.64 2.08 2.7 2.05 2.7 7.59Zm0 0"/></g></g></svg>